<svg width="101" height="101" viewBox="0 0 101 101" fill="none" xmlns="http://www.w3.org/2000/svg">
<circle cx="50.5" cy="50.5" r="50.5" fill="white"/>
<path d="M41.7363 61.0637L33.6363 52.9637L33.4815 52.8089L30.3 49.6274V38.75C30.3 37.013 28.887 35.6 27.15 35.6C25.413 35.6 24 37.013 24 38.75V58.55C24 58.7516 24.0675 58.946 24.1908 59.1044L32.1 69.2105V77H33.9V68.9C33.9 68.6984 33.8325 68.504 33.7092 68.3456L25.8 58.2395V38.75C25.8 38.0057 26.4057 37.4 27.15 37.4C27.8943 37.4 28.5 38.0057 28.5 38.75V50C28.5 50.2394 28.5945 50.468 28.7637 50.6363L30.0813 51.9539C28.653 52.3742 27.6 53.6828 27.6 55.2452C27.6 56.1659 27.9582 57.0308 28.6098 57.6815L34.1637 63.2363L35.4363 61.9637L29.8815 56.4089C29.5755 56.102 29.4 55.679 29.4 55.2452C29.4 54.338 30.138 53.6 31.0461 53.6C31.4844 53.6 31.8966 53.771 32.2071 54.0797L32.3637 54.2363L40.2 62.0726V77H42V61.7C42 61.4606 41.9055 61.232 41.7363 61.0637Z" fill="#18C7F5"/>
<path d="M74.85 35.6C73.113 35.6 71.7 37.013 71.7 38.75V49.6274L68.5203 52.8071C68.5194 52.808 68.5185 52.808 68.5176 52.8089L60.2637 61.0637C60.0945 61.232 60 61.4606 60 61.7V77H61.8V62.0726L69.6363 54.2354L69.7947 54.077C70.1052 53.7701 70.5165 53.6 70.9539 53.6C71.862 53.6 72.6 54.338 72.6 55.2452C72.6 55.6781 72.4245 56.102 72.1176 56.4089L66.5637 61.9637L67.8363 63.2363L73.3902 57.6815C74.0418 57.0308 74.4 56.1668 74.4 55.2452C74.4 53.6828 73.347 52.3742 71.9187 51.9539L73.2363 50.6363C73.4055 50.468 73.5 50.2394 73.5 50V38.75C73.5 38.0057 74.1057 37.4 74.85 37.4C75.5943 37.4 76.2 38.0057 76.2 38.75V58.2395L68.2908 68.3456C68.1675 68.504 68.1 68.6984 68.1 68.9V77H69.9V69.2105L77.8092 59.1044C77.9325 58.946 78 58.7516 78 58.55V38.75C78 37.013 76.587 35.6 74.85 35.6Z" fill="#18C7F5"/>
<path d="M51 23C41.5707 23 33.9 30.6707 33.9 40.1C33.9 49.5293 41.5707 57.2 51 57.2C60.4293 57.2 68.1 49.5293 68.1 40.1C68.1 30.6707 60.4293 23 51 23ZM51 55.4C42.5634 55.4 35.7 48.5366 35.7 40.1C35.7 31.6634 42.5634 24.8 51 24.8C59.4366 24.8 66.3 31.6634 66.3 40.1C66.3 48.5366 59.4366 55.4 51 55.4Z" fill="#18C7F5"/>
<path d="M60.9 35.6H55.5V30.2C55.5 29.7023 55.0968 29.3 54.6 29.3H47.4C46.9032 29.3 46.5 29.7023 46.5 30.2V35.6H41.1C40.6032 35.6 40.2 36.0023 40.2 36.5V43.7C40.2 44.1977 40.6032 44.6 41.1 44.6H46.5V50C46.5 50.4977 46.9032 50.9 47.4 50.9H54.6C55.0968 50.9 55.5 50.4977 55.5 50V44.6H60.9C61.3968 44.6 61.8 44.1977 61.8 43.7V36.5C61.8 36.0023 61.3968 35.6 60.9 35.6ZM60 42.8H54.6C54.1032 42.8 53.7 43.2023 53.7 43.7V49.1H48.3V43.7C48.3 43.2023 47.8968 42.8 47.4 42.8H42V37.4H47.4C47.8968 37.4 48.3 36.9977 48.3 36.5V31.1H53.7V36.5C53.7 36.9977 54.1032 37.4 54.6 37.4H60V42.8Z" fill="#18C7F5"/>
<path d="M48.3 59H46.5V60.8H48.3V59Z" fill="#18C7F5"/>
<path d="M51.9 59H50.1V60.8H51.9V59Z" fill="#18C7F5"/>
<path d="M55.5 59H53.7V60.8H55.5V59Z" fill="#18C7F5"/>
</svg>
