<svg width="16" height="16" viewBox="0 0 16 16" fill="none" xmlns="http://www.w3.org/2000/svg">
<path d="M14.5938 1.90625H1.40626C1.18979 1.90625 0.987131 1.95947 0.803787 2.04719L7.96875 9.21216L9.57466 7.66881C9.57466 7.66881 9.57479 7.66866 9.57482 7.66859C9.57485 7.66853 9.57497 7.66847 9.57497 7.66847L15.1964 2.04731C15.0131 1.95953 14.8103 1.90625 14.5938 1.90625Z" fill="white"/>
<path d="M15.8592 2.71027L10.5692 8.00008L15.8591 13.29C15.9468 13.1066 16 12.904 16 12.6875V3.31252C16 3.09617 15.9469 2.89355 15.8592 2.71027Z" fill="white"/>
<path d="M0.140938 2.71002C0.0532188 2.89337 0 3.09602 0 3.31249V12.6875C0 12.9038 0.0531562 13.1065 0.140813 13.2898L5.43091 7.99999L0.140938 2.71002Z" fill="white"/>
<path d="M9.90631 8.6629L8.30019 10.2064C8.20862 10.298 8.08869 10.3438 7.96878 10.3438C7.84887 10.3438 7.7289 10.298 7.63737 10.2064L6.09375 8.66284L0.803558 13.9527C0.986933 14.0405 1.18971 14.0937 1.40625 14.0937H14.5938C14.8102 14.0937 15.0129 14.0405 15.1962 13.9528L9.90631 8.6629Z" fill="white"/>
</svg>
