<svg width="41" height="41" viewBox="0 0 41 41" fill="none" xmlns="http://www.w3.org/2000/svg">
<path d="M20.4199 32.1113C19.5353 32.1113 18.8184 31.3944 18.8184 30.5098C18.8184 29.6252 19.5353 28.9082 20.4199 28.9082C21.3045 28.9082 22.0215 29.6252 22.0215 30.5098C22.0215 31.3944 21.3045 32.1113 20.4199 32.1113ZM22.0215 24.9043V22.7538C25.1183 22.0046 27.2638 19.195 27.1415 16.0178C27.0085 12.5582 24.1701 9.74513 20.6796 9.61438C18.8146 9.54369 17.0535 10.2118 15.7222 11.494C14.4137 12.7543 13.6934 14.4453 13.6934 16.2559C13.6934 17.1405 14.4103 17.8574 15.2949 17.8574C16.1795 17.8574 16.8965 17.1405 16.8965 16.2559C16.8965 15.3237 17.2684 14.4519 17.9441 13.8013C18.6429 13.1284 19.571 12.7784 20.5594 12.815C22.3865 12.8838 23.8717 14.3446 23.9409 16.1411C24.005 17.8152 22.8495 19.2944 21.1926 19.6579C19.7946 19.9648 18.8184 21.1728 18.8184 22.5961V24.9043C18.8184 25.7889 19.5353 26.5059 20.4199 26.5059C21.3045 26.5059 22.0215 25.7889 22.0215 24.9043ZM31.1072 38.0456C31.8639 37.5873 32.1057 36.6026 31.6474 35.8462C31.1889 35.0895 30.2042 34.8477 29.4478 35.306C26.7577 36.9354 23.6634 37.7969 20.5 37.7969C10.9626 37.7969 3.20312 30.0374 3.20312 20.5C3.20312 10.9626 10.9626 3.20312 20.5 3.20312C30.0374 3.20312 37.7969 10.9626 37.7969 20.5C37.7969 23.9105 36.7828 27.23 34.864 30.1003C34.3723 30.8354 34.57 31.8301 35.3051 32.3218C36.0405 32.8136 37.0352 32.6159 37.5266 31.8805C39.7991 28.4818 41 24.5464 41 20.5C41 15.0243 38.8676 9.8762 34.9957 6.0043C31.1238 2.13239 25.9757 0 20.5 0C15.0243 0 9.8762 2.13239 6.0043 6.0043C2.13239 9.8762 0 15.0243 0 20.5C0 25.9757 2.13239 31.1238 6.0043 34.9957C9.8762 38.8676 15.0243 41 20.5 41C24.2487 41 27.9166 39.9784 31.1072 38.0456Z" fill="#222222"/>
</svg>
