<svg width="57" height="57" viewBox="0 0 57 57" fill="none" xmlns="http://www.w3.org/2000/svg">
<path d="M27.5172 10.8101C26.9745 10.8101 26.5344 10.3705 26.5344 9.82776V5.89648C26.5344 5.35376 26.9745 4.91367 27.5172 4.91367C28.06 4.91367 28.5001 5.35376 28.5001 5.89648V9.82776C28.5001 10.3705 28.06 10.8101 27.5172 10.8101Z" fill="#9B4A00"/>
<path d="M14.3139 16.2796C14.0534 16.2791 13.8034 16.1756 13.619 15.9912L10.1439 12.5166C9.77166 12.1309 9.77688 11.5177 10.1561 11.1389C10.5353 10.7597 11.148 10.7545 11.5338 11.1267L15.0089 14.6018C15.2898 14.8828 15.3737 15.3055 15.2215 15.6725C15.0697 16.04 14.7114 16.2791 14.3139 16.2796Z" fill="#9B4A00"/>
<path d="M8.845 29.4828H4.91373C4.371 29.4828 3.93091 29.0427 3.93091 28.5C3.93091 27.9573 4.371 27.5172 4.91373 27.5172H8.845C9.38773 27.5172 9.82782 27.9573 9.82782 28.5C9.82782 29.0427 9.38773 29.4828 8.845 29.4828Z" fill="#9B4A00"/>
<path d="M10.839 46.1612C10.4415 46.1612 10.0832 45.9216 9.93139 45.5545C9.77918 45.1875 9.86312 44.7648 10.144 44.4834L13.6191 41.0088C14.0049 40.6361 14.6176 40.6413 14.9968 41.0205C15.376 41.3997 15.3813 42.0125 15.009 42.3982L11.5339 45.8733C11.3495 46.0577 11.0995 46.1612 10.839 46.1612V46.1612Z" fill="#9B4A00"/>
<path d="M27.5172 52.0864C26.9745 52.0864 26.5344 51.6463 26.5344 51.1035V47.1723C26.5344 46.6295 26.9745 46.1899 27.5172 46.1899C28.06 46.1899 28.5001 46.6295 28.5001 47.1723V51.1035C28.5001 51.6463 28.06 52.0864 27.5172 52.0864Z" fill="#9B4A00"/>
<path d="M44.1955 46.1612C43.935 46.1612 43.6849 46.0577 43.501 45.8733L40.0259 42.3982C39.6532 42.0125 39.6584 41.3997 40.0376 41.0205C40.4168 40.6413 41.0296 40.6361 41.4153 41.0088L44.8904 44.4834C45.1713 44.7648 45.2553 45.1875 45.1035 45.5545C44.9513 45.9216 44.5929 46.1612 44.1955 46.1612V46.1612Z" fill="#9B4A00"/>
<path d="M51.1035 29.4828H46.1898C45.6467 29.4828 45.207 29.0427 45.207 28.5C45.207 27.9573 45.6467 27.5172 46.1898 27.5172H51.1035C51.6462 27.5172 52.0863 27.9573 52.0863 28.5C52.0863 29.0427 51.6462 29.4828 51.1035 29.4828V29.4828Z" fill="#9B4A00"/>
<path d="M40.7205 16.2796C40.3234 16.2791 39.9651 16.0399 39.8129 15.6725C39.6607 15.3054 39.745 14.8827 40.026 14.6018L43.5011 11.1267C43.7476 10.8714 44.1129 10.7688 44.4565 10.8588C44.8 10.9488 45.0683 11.2172 45.1584 11.5607C45.2484 11.9043 45.1458 12.2696 44.8905 12.5166L41.4154 15.9912C41.231 16.1756 40.9814 16.2791 40.7205 16.2796V16.2796Z" fill="#9B4A00"/>
<path d="M46.1899 28.5C46.1899 38.8126 37.8299 47.1723 27.5172 47.1723C17.2046 47.1723 8.84497 38.8126 8.84497 28.5C8.84497 18.1874 17.2046 9.82776 27.5172 9.82776C37.8299 9.82776 46.1899 18.1874 46.1899 28.5Z" fill="#9B4A00"/>
<path d="M27.5172 44.2242C26.9745 44.2242 26.5344 43.7841 26.5344 43.2414C26.5344 42.6987 26.9745 42.2586 27.5172 42.2586C35.1128 42.2503 41.268 36.0951 41.2758 28.5C41.2758 27.9573 41.7159 27.5172 42.2587 27.5172C42.8014 27.5172 43.2415 27.9573 43.2415 28.5C43.231 37.1801 36.1974 44.2138 27.5172 44.2242Z" fill="#CB7A30"/>
<path d="M35.3792 21.6207C35.3792 23.7916 33.6193 25.5516 31.4484 25.5516C29.277 25.5516 27.5171 23.7916 27.5171 21.6207C27.5171 19.4498 29.277 17.6899 31.4484 17.6899C33.6193 17.6899 35.3792 19.4498 35.3792 21.6207V21.6207Z" fill="#F68824"/>
<path d="M21.6206 24.5692C21.6206 26.1973 20.3008 27.5172 18.6721 27.5172C17.044 27.5172 15.7241 26.1973 15.7241 24.5692C15.7241 22.9405 17.044 21.6207 18.6721 21.6207C20.3008 21.6207 21.6206 22.9405 21.6206 24.5692Z" fill="#F68824"/>
<path d="M30.4656 33.4137C30.4656 35.0423 29.1453 36.3621 27.5171 36.3621C25.8889 36.3621 24.5691 35.0423 24.5691 33.4137C24.5691 31.7855 25.8889 30.4656 27.5171 30.4656C29.1453 30.4656 30.4656 31.7855 30.4656 33.4137V33.4137Z" fill="#F68824"/>
<path d="M16.7069 34.3965C16.5782 34.3952 16.4517 34.3682 16.3334 34.3178C16.2142 34.2682 16.1046 34.1982 16.009 34.1117C15.9202 34.0177 15.8502 33.9077 15.8028 33.7872C15.7524 33.669 15.7254 33.5424 15.7241 33.4137C15.728 33.1536 15.8298 32.9044 16.009 32.7161C16.1046 32.6292 16.2142 32.5596 16.3334 32.5096C16.7 32.3613 17.1192 32.4422 17.4045 32.7161C17.5841 32.9044 17.6858 33.1536 17.6898 33.4137C17.688 33.5424 17.6615 33.669 17.611 33.7872C17.5636 33.9077 17.4932 34.0177 17.4045 34.1117C17.2162 34.2908 16.967 34.3926 16.7069 34.3965Z" fill="#F68824"/>
<path d="M21.6208 40.293C21.4925 40.2917 21.3655 40.2647 21.2472 40.2147C21.128 40.1647 21.0185 40.0947 20.9228 40.0081C20.8341 39.9142 20.7641 39.8042 20.7167 39.6837C20.6662 39.5658 20.6397 39.4389 20.6379 39.3101C20.6419 39.0501 20.7436 38.8009 20.9228 38.6126C21.0185 38.5261 21.128 38.456 21.2472 38.406C21.6138 38.2577 22.0335 38.3386 22.3183 38.6126C22.4979 38.8009 22.5997 39.0501 22.6036 39.3101C22.6018 39.4389 22.5753 39.5658 22.5249 39.6837C22.4775 39.8042 22.4074 39.9142 22.3183 40.0081C22.13 40.1877 21.8808 40.2895 21.6208 40.293V40.293Z" fill="#F68824"/>
<path d="M30.4656 2.94846C30.4656 4.57663 29.1453 5.89648 27.5171 5.89648C25.8889 5.89648 24.5691 4.57663 24.5691 2.94846C24.5691 1.31985 25.8889 0 27.5171 0C29.1453 0 30.4656 1.31985 30.4656 2.94846Z" fill="#F68824"/>
<path d="M11.9908 9.04235C11.9908 11.2132 10.2304 12.9732 8.0595 12.9732C5.8886 12.9732 4.12866 11.2132 4.12866 9.04235C4.12866 6.87145 5.8886 5.11151 8.0595 5.11151C10.2304 5.11151 11.9908 6.87145 11.9908 9.04235Z" fill="#F68824"/>
<path d="M4.91366 28.5C4.91366 29.8568 3.81386 30.9571 2.45705 30.9571C1.0998 30.9571 0 29.8568 0 28.5C0 27.1432 1.0998 26.043 2.45705 26.043C3.81386 26.043 4.91366 27.1432 4.91366 28.5Z" fill="#F68824"/>
<path d="M11.9908 47.9576C11.9908 50.1285 10.2304 51.8885 8.0595 51.8885C5.8886 51.8885 4.12866 50.1285 4.12866 47.9576C4.12866 45.7867 5.8886 44.0268 8.0595 44.0268C10.2304 44.0268 11.9908 45.7867 11.9908 47.9576V47.9576Z" fill="#F68824"/>
<path d="M30.4656 54.0515C30.4656 55.6801 29.1453 57 27.5171 57C25.8889 57 24.5691 55.6801 24.5691 54.0515C24.5691 52.4234 25.8889 51.1035 27.5171 51.1035C29.1453 51.1035 30.4656 52.4234 30.4656 54.0515Z" fill="#F68824"/>
<path d="M50.9061 47.9576C50.9061 50.1285 49.1457 51.8885 46.9748 51.8885C44.8039 51.8885 43.0439 50.1285 43.0439 47.9576C43.0439 45.7867 44.8039 44.0268 46.9748 44.0268C49.1457 44.0268 50.9061 45.7867 50.9061 47.9576V47.9576Z" fill="#F68824"/>
<path d="M57 28.5C57 30.1282 55.6801 31.4485 54.0515 31.4485C52.4234 31.4485 51.1035 30.1282 51.1035 28.5C51.1035 26.8718 52.4234 25.5515 54.0515 25.5515C55.6801 25.5515 57 26.8718 57 28.5Z" fill="#F68824"/>
<path d="M50.9061 9.04235C50.9061 11.2132 49.1457 12.9732 46.9748 12.9732C44.8039 12.9732 43.0439 11.2132 43.0439 9.04235C43.0439 6.87145 44.8039 5.11151 46.9748 5.11151C49.1457 5.11151 50.9061 6.87145 50.9061 9.04235V9.04235Z" fill="#F68824"/>
</svg>
